/* XPM */
static const char * zero_xpm[] = {
"38 50 2 1",
" 	c None",
".	c #FFFFFF",
"                                      ",
"                                      ",
"                                      ",
"                                      ",
"                   ..                 ",
"               ..........             ",
"             ..............           ",
"           .................          ",
"          ...................         ",
"          ....................        ",
"         ......................       ",
"        .......................       ",
"        ........................      ",
"       .........................      ",
"       ..........................     ",
"      ...........................     ",
"      ...........................     ",
"      ............................    ",
"      ............................    ",
"      ............................    ",
"      ............................    ",
"      ............   .............    ",
"     ............      ...........    ",
"     ............      ...........    ",
"      ...........      ...........    ",
"      ..........        ..........    ",
"      ..........        ..........    ",
"      ..........        ..........    ",
"      ..........        ..........    ",
"      ..........        .........     ",
"      ..........        .........     ",
"       .........       ..........     ",
"       ..........      ..........     ",
"       ..........      .........      ",
"        .........     ..........      ",
"        ..........    .........       ",
"         ..........  ..........       ",
"         .....................        ",
"          ...................         ",
"           ..................         ",
"            ................          ",
"             ..............           ",
"              ...........             ",
"                .......               ",
"                                      ",
"                                      ",
"                                      ",
"                                      ",
"                                      ",
"                                      "};
