/* XPM */
static const char * um_xpm[] = {
"38 50 2 1",
" 	c None",
".	c #FFFFFF",
"                                      ",
"                                      ",
"                                      ",
"                        ..            ",
"                      .....           ",
"                     .......          ",
"                   .........          ",
"                 ...........          ",
"               .............          ",
"             ...............          ",
"           ................           ",
"         ..................           ",
"         ..................           ",
"          .................           ",
"          .................           ",
"          .................           ",
"           ................           ",
"           ................           ",
"           ................           ",
"               ............           ",
"               ............           ",
"               ............           ",
"               ............           ",
"               ............           ",
"               ............           ",
"               ............           ",
"               ............           ",
"               ............           ",
"               ............           ",
"               ............           ",
"               ............           ",
"               ............           ",
"                ...........           ",
"                ...........           ",
"                ...........           ",
"                ...........           ",
"                ...........           ",
"                ...........           ",
"                ...........           ",
"                ...........           ",
"                ...........           ",
"                ...........           ",
"                ...........           ",
"                                      ",
"                                      ",
"                                      ",
"                                      ",
"                                      ",
"                                      ",
"                                      "};
