/* XPM */
static const char * dois_xpm[] = {
"38 50 2 1",
" 	c None",
".	c #FFFFFF",
"                                      ",
"                                      ",
"                                      ",
"                                      ",
"                 ..                   ",
"           .............              ",
"          ................            ",
"          .................           ",
"          ..................          ",
"          ...................         ",
"          ....................        ",
"          ....................        ",
"          ....................        ",
"          .....................       ",
"         ......................       ",
"         ......................       ",
"         ......................       ",
"         ......................       ",
"         .....................        ",
"               ...............        ",
"                ..............        ",
"                 .............        ",
"                 ............         ",
"                 ............         ",
"                 ...........          ",
"                 ...........          ",
"                ...........           ",
"                ..........            ",
"                ..........            ",
"               ..........             ",
"               .........              ",
"               .........              ",
"              .........               ",
"              ........                ",
"             ........                 ",
"             .......                  ",
"            ........      ...         ",
"           ..................         ",
"           ..................         ",
"          ..................          ",
"          ..................          ",
"          ..................          ",
"           ................           ",
"                                      ",
"                                      ",
"                                      ",
"                                      ",
"                                      ",
"                                      ",
"                                      "};
