/* XPM */
static const char * tres_xpm[] = {
"38 50 2 1",
" 	c None",
".	c #FFFFFF",
"                                      ",
"                                      ",
"                                      ",
"                                      ",
"                 ..                   ",
"           .............              ",
"         .................            ",
"         ...................          ",
"         ....................         ",
"         .....................        ",
"         .....................        ",
"         ......................       ",
"         ......................       ",
"         ......................       ",
"         ......................       ",
"         ......................       ",
"         ......................       ",
"         ......................       ",
"                ...............       ",
"                 ..............       ",
"                 ..............       ",
"                 .............        ",
"                 .............        ",
"                 ............         ",
"               .............          ",
"              .............           ",
"              ............            ",
"              ...........             ",
"              ...........             ",
"              ............            ",
"              .............           ",
"                  ..........          ",
"                   .........          ",
"                    .........         ",
"                    .........         ",
"                    .........         ",
"                   ..........         ",
"           ..................         ",
"            ................          ",
"            ................          ",
"            ...............           ",
"            ..............            ",
"             ............             ",
"             .........                ",
"                                      ",
"                                      ",
"                                      ",
"                                      ",
"                                      ",
"                                      "};
