/* XPM */
static const char * quatro_xpm[] = {
"38 50 2 1",
" 	c None",
".	c #FFFFFF",
"                                      ",
"                                      ",
"                                      ",
"                                      ",
"                   ............       ",
"                   ............       ",
"                   ............       ",
"                   ............       ",
"                   ............       ",
"                   ............       ",
"                   ............       ",
"                   ............       ",
"                   ............       ",
"                   ............       ",
"             ..................       ",
"            ...................       ",
"            ...................       ",
"            ...................       ",
"            ...................       ",
"            ...................       ",
"            ...................       ",
"            ...................       ",
"            ...................       ",
"           ........ ...........       ",
"           .......  ...........       ",
"           .......  ...........       ",
"          .......   ..........        ",
"          .......   ..........        ",
"          .......   ..........        ",
"         .......    ..........        ",
"         .......    ..........        ",
"        ...........................   ",
"        ...........................   ",
"       ............................   ",
"       ............................   ",
"      ............................    ",
"      ............................    ",
"                    ..........        ",
"                    ..........        ",
"                    ..........        ",
"                    ..........        ",
"                    ..........        ",
"                    ..........        ",
"                                      ",
"                                      ",
"                                      ",
"                                      ",
"                                      ",
"                                      ",
"                                      "};
