/* XPM */
static const char * cinco_xpm[] = {
"38 50 2 1",
" 	c None",
".	c #FFFFFF",
"                                      ",
"                                      ",
"                                      ",
"                                      ",
"             ................         ",
"            ..................        ",
"            ..................        ",
"            ..................        ",
"            .................         ",
"            .................         ",
"            .................         ",
"           ..................         ",
"           ..................         ",
"           .................          ",
"           .................          ",
"           .................          ",
"           ......                     ",
"          .......                     ",
"          ......                      ",
"          ......                      ",
"          ......  ......              ",
"          .................           ",
"          ..................          ",
"         ....................         ",
"         .....................        ",
"         .....................        ",
"         ......................       ",
"        .......................       ",
"        .......................       ",
"         .......................      ",
"          ......................      ",
"           .        ............      ",
"                     ...........      ",
"                     ..........       ",
"                     ..........       ",
"                     ..........       ",
"                     ..........       ",
"                    ..........        ",
"          ....................        ",
"          ...................         ",
"          ..................          ",
"          .................           ",
"           ..............             ",
"           ...........                ",
"                                      ",
"                                      ",
"                                      ",
"                                      ",
"                                      ",
"                                      "};
