/* XPM */
static const char * seis_xpm[] = {
"38 50 2 1",
" 	c None",
".	c #FFFFFF",
"                                      ",
"                                      ",
"                                      ",
"                 ...                  ",
"                ..........            ",
"                .............         ",
"               .............          ",
"              .............           ",
"              ............            ",
"             ............             ",
"             ...........              ",
"            ............              ",
"           ............               ",
"           ...........                ",
"          ...........                 ",
"          ...........                 ",
"          ..........                  ",
"         ...........                  ",
"         ..................           ",
"         ....................         ",
"        ......................        ",
"        .......................       ",
"        ........................      ",
"        ........................      ",
"        ........................      ",
"       ..........................     ",
"       ..........................     ",
"       ............   ...........     ",
"       ...........     ..........     ",
"       ...........      .........     ",
"       ..........       .........     ",
"       ..........       .........     ",
"        ..........      .........     ",
"        ..........      .........     ",
"        ..........     .........      ",
"        ...........    .........      ",
"         ...........  ..........      ",
"         ......................       ",
"          .....................       ",
"          ....................        ",
"           ..................         ",
"             ...............          ",
"              .............           ",
"                 ........             ",
"                                      ",
"                                      ",
"                                      ",
"                                      ",
"                                      ",
"                                      "};
