/* XPM */
static const char * nove_xpm[] = {
"38 50 2 1",
" 	c None",
".	c #FFFFFF",
"                                      ",
"                                      ",
"                                      ",
"                                      ",
"                   ..                 ",
"               ..........             ",
"             ..............           ",
"            ................          ",
"           ..................         ",
"          ....................        ",
"         .....................        ",
"         ......................       ",
"        .......................       ",
"        ........................      ",
"       .........................      ",
"       .........................      ",
"       ..........................     ",
"       ..........................     ",
"      ...........................     ",
"      ...........     ...........     ",
"      ..........      ...........     ",
"       .........      ...........     ",
"       .........      ..........      ",
"       .........      ..........      ",
"       ..........     ..........      ",
"        .........     ..........      ",
"        ...........  ..........       ",
"         ......................       ",
"         ......................       ",
"          ....................        ",
"           ...................        ",
"            ..................        ",
"              ...............         ",
"                  ...........         ",
"                  ..........          ",
"                  .........           ",
"                 ..........           ",
"                 .........            ",
"                ..........            ",
"                .........             ",
"               .........              ",
"               .........              ",
"              .........               ",
"                 .....                ",
"                                      ",
"                                      ",
"                                      ",
"                                      ",
"                                      ",
"                                      "};
