/* XPM */
static const char * asteroide_xpm[] = {
"70 70 539 2",
"  	c None",
". 	c #101010",
"+ 	c #050505",
"@ 	c #040404",
"# 	c #010101",
"$ 	c #000000",
"% 	c #030303",
"& 	c #080808",
"* 	c #070707",
"= 	c #05040C",
"- 	c #1C162E",
"; 	c #2C2344",
"> 	c #302649",
", 	c #150F23",
"' 	c #0B0B0B",
") 	c #231B38",
"! 	c #5D4C8A",
"~ 	c #7A64B3",
"{ 	c #886FC7",
"] 	c #8970C8",
"^ 	c #413563",
"/ 	c #030207",
"( 	c #3C305A",
"_ 	c #8069BC",
": 	c #9278D5",
"< 	c #957AD9",
"[ 	c #9378D7",
"} 	c #725DA8",
"| 	c #1C152D",
"1 	c #0A0A0A",
"2 	c #2B2242",
"3 	c #826ABF",
"4 	c #9479D7",
"5 	c #8970C7",
"6 	c #675499",
"7 	c #1F1731",
"8 	c #000001",
"9 	c #221C31",
"0 	c #0B0814",
"a 	c #010100",
"b 	c #020201",
"c 	c #0C0C0C",
"d 	c #060606",
"e 	c #2F2548",
"f 	c #6D59A0",
"g 	c #6C589F",
"h 	c #584782",
"i 	c #372C53",
"j 	c #06040D",
"k 	c #42365C",
"l 	c #8772BA",
"m 	c #3B3153",
"n 	c #020204",
"o 	c #110D1B",
"p 	c #1E182D",
"q 	c #231C34",
"r 	c #241E35",
"s 	c #20192E",
"t 	c #120E1C",
"u 	c #030307",
"v 	c #0D0D0D",
"w 	c #010103",
"x 	c #06040E",
"y 	c #05040B",
"z 	c #020205",
"A 	c #2B233D",
"B 	c #635389",
"C 	c #9F87D8",
"D 	c #AC92EB",
"E 	c #7A67A7",
"F 	c #5A4B7D",
"G 	c #7765A5",
"H 	c #8671B7",
"I 	c #947ECB",
"J 	c #9D85D7",
"K 	c #A189DC",
"L 	c #A189DE",
"M 	c #9E86D9",
"N 	c #947ECC",
"O 	c #8873BB",
"P 	c #7764A4",
"Q 	c #584A7A",
"R 	c #41365B",
"S 	c #010102",
"T 	c #0D0915",
"U 	c #2B233E",
"V 	c #4D406B",
"W 	c #72619E",
"X 	c #937DCA",
"Y 	c #A88FE6",
"Z 	c #A990E7",
"` 	c #AA90E8",
" .	c #AD93EC",
"..	c #AC92EC",
"+.	c #A088DA",
"@.	c #907BC5",
"#.	c #6E5D98",
"$.	c #342C4B",
"%.	c #090909",
"&.	c #2E2643",
"*.	c #967FCD",
"=.	c #A88EE5",
"-.	c #AA90E9",
";.	c #A188DB",
">.	c #7563A0",
",.	c #372E4E",
"'.	c #0A0712",
").	c #7B68A8",
"!.	c #9B84D4",
"~.	c #6B5B94",
"{.	c #251E36",
"].	c #040308",
"^.	c #3F3559",
"/.	c #8E79C2",
"(.	c #3B3254",
"_.	c #020103",
":.	c #534674",
"<.	c #9981D1",
"[.	c #A98FE7",
"}.	c #9C85D6",
"|.	c #927CC9",
"1.	c #8D77C2",
"2.	c #917BC6",
"3.	c #9881D0",
"4.	c #A58CE1",
"5.	c #AC92EA",
"6.	c #9B83D5",
"7.	c #544775",
"8.	c #090711",
"9.	c #08050F",
"0.	c #5E4F82",
"a.	c #A088DB",
"b.	c #65558B",
"c.	c #3A3152",
"d.	c #211A31",
"e.	c #0A0610",
"f.	c #1B1628",
"g.	c #302745",
"h.	c #50436F",
"i.	c #826EB1",
"j.	c #A78EE5",
"k.	c #A188DC",
"l.	c #5F5084",
"m.	c #111111",
"n.	c #020202",
"o.	c #020104",
"p.	c #574979",
"q.	c #A289DD",
"r.	c #9E86D8",
"s.	c #463A60",
"t.	c #0A0D0F",
"u.	c #111316",
"v.	c #0E1013",
"w.	c #040506",
"x.	c #010001",
"y.	c #120E1D",
"z.	c #625386",
"A.	c #A38BDF",
"B.	c #5C4E80",
"C.	c #06050C",
"D.	c #4E406D",
"E.	c #6D5C96",
"F.	c #0A0B0E",
"G.	c #2C3038",
"H.	c #383E46",
"I.	c #3C424B",
"J.	c #3A4049",
"K.	c #32383F",
"L.	c #202429",
"M.	c #020303",
"N.	c #030204",
"O.	c #705F9B",
"P.	c #AB91E9",
"Q.	c #A087DA",
"R.	c #504470",
"S.	c #382E4E",
"T.	c #977FCE",
"U.	c #AB91EA",
"V.	c #473B63",
"W.	c #25282E",
"X.	c #414852",
"Y.	c #424953",
"Z.	c #404650",
"`.	c #26292F",
" +	c #261F37",
".+	c #9F86D8",
"++	c #9780CF",
"@+	c #312947",
"#+	c #0E0919",
"$+	c #181227",
"%+	c #100C19",
"&+	c #7E6AAC",
"*+	c #66568D",
"=+	c #101216",
"-+	c #373D45",
";+	c #161122",
">+	c #AC93EB",
",+	c #8571B7",
"'+	c #1C162A",
")+	c #463B61",
"!+	c #392D57",
"~+	c #6D59A1",
"{+	c #271E3D",
"]+	c #564977",
"^+	c #322A48",
"/+	c #0D0F12",
"(+	c #25292F",
"_+	c #333941",
":+	c #373D46",
"<+	c #363B43",
"[+	c #2B2F36",
"}+	c #43395E",
"|+	c #A68DE2",
"1+	c #907AC4",
"2+	c #806CB0",
"3+	c #3B2F59",
"4+	c #8B71CA",
"5+	c #735EA8",
"6+	c #120D1E",
"7+	c #251F37",
"8+	c #8B76BE",
"9+	c #030206",
"0+	c #382E4F",
"a+	c #8E78C3",
"b+	c #8C77C0",
"c+	c #191427",
"d+	c #2D2245",
"e+	c #866DC4",
"f+	c #9177D2",
"g+	c #55457E",
"h+	c #05030B",
"i+	c #040307",
"j+	c #64548A",
"k+	c #9D85D6",
"l+	c #7866A5",
"m+	c #473C63",
"n+	c #211B2F",
"o+	c #0E0A17",
"p+	c #352D4D",
"q+	c #695990",
"r+	c #9881CF",
"s+	c #957ECC",
"t+	c #2C243F",
"u+	c #161024",
"v+	c #7E66B8",
"w+	c #8169BC",
"x+	c #211A35",
"y+	c #211B31",
"z+	c #8F79C3",
"A+	c #A58CE2",
"B+	c #AA91E9",
"C+	c #453A62",
"D+	c #645193",
"E+	c #9479D8",
"F+	c #4E3F75",
"G+	c #43385E",
"H+	c #A68DE3",
"I+	c #64548C",
"J+	c #8F75D1",
"K+	c #967ADA",
"L+	c #7D66B7",
"M+	c #07050F",
"N+	c #7866A4",
"O+	c #AD92EB",
"P+	c #8F79C4",
"Q+	c #0F0B19",
"R+	c #04030A",
"S+	c #7560AC",
"T+	c #957ADA",
"U+	c #8E75D0",
"V+	c #3A2E57",
"W+	c #140F1E",
"X+	c #9C84D6",
"Y+	c #937CC9",
"Z+	c #907AC5",
"`+	c #947DCB",
" @	c #9E85D7",
".@	c #A78EE4",
"+@	c #A88FE5",
"@@	c #534572",
"#@	c #443767",
"$@	c #8E74CF",
"%@	c #9378D6",
"&@	c #584783",
"*@	c #42375E",
"=@	c #A68CE2",
"-@	c #A58CE0",
";@	c #7F6CAF",
">@	c #514471",
",@	c #28203A",
"'@	c #231C33",
")@	c #29223C",
"!@	c #564877",
"~@	c #8C76C0",
"{@	c #1E182E",
"]@	c #130E21",
"^@	c #6E5AA1",
"/@	c #5F4F83",
"(@	c #A98FE6",
"_@	c #947DCA",
":@	c #4B406A",
"<@	c #090A0D",
"[@	c #0B0D0F",
"}@	c #08090C",
"|@	c #010202",
"1@	c #584A7B",
"2@	c #9B83D3",
"3@	c #A68CE3",
"4@	c #5B4D7F",
"5@	c #2A2140",
"6@	c #826ABD",
"7@	c #6F5AA2",
"8@	c #705E9A",
"9@	c #917BC7",
"0@	c #3A3052",
"a@	c #040505",
"b@	c #31363E",
"c@	c #393F48",
"d@	c #2F353C",
"e@	c #1C1F25",
"f@	c #463A62",
"g@	c #9982D2",
"h@	c #312946",
"i@	c #392D56",
"j@	c #504076",
"k@	c #7A66A7",
"l@	c #9F87DA",
"m@	c #3E3457",
"n@	c #0E0F13",
"o@	c #32373F",
"p@	c #404751",
"q@	c #2D3239",
"r@	c #514370",
"s@	c #8773BA",
"t@	c #201A2F",
"u@	c #06040C",
"v@	c #7966A7",
"w@	c #353A42",
"x@	c #424952",
"y@	c #30353C",
"z@	c #1A1528",
"A@	c #8672B9",
"B@	c #AB92EA",
"C@	c #9A83D3",
"D@	c #7866A6",
"E@	c #2E2642",
"F@	c #0B0813",
"G@	c #826EB2",
"H@	c #57497A",
"I@	c #23272D",
"J@	c #3F454F",
"K@	c #1C1F24",
"L@	c #030205",
"M@	c #685890",
"N@	c #9C85D5",
"O@	c #64558A",
"P@	c #352B4B",
"Q@	c #100C1B",
"R@	c #7F6CB0",
"S@	c #3E3458",
"T@	c #020304",
"U@	c #2E343B",
"V@	c #272C32",
"W@	c #564878",
"X@	c #A68DE4",
"Y@	c #806CAF",
"Z@	c #7C69AB",
"`@	c #2E333B",
" #	c #272B32",
".#	c #A78DE4",
"+#	c #AD92EC",
"@#	c #7664A3",
"##	c #73609E",
"$#	c #1B1F24",
"%#	c #695890",
"&#	c #7865A5",
"*#	c #0E0B18",
"=#	c #343942",
"-#	c #2F343B",
";#	c #1B1629",
">#	c #8772B9",
",#	c #594B7B",
"'#	c #4C406B",
")#	c #0C0F11",
"!#	c #3F464F",
"~#	c #07080A",
"{#	c #524572",
"]#	c #927BC6",
"^#	c #836FB4",
"/#	c #957FCD",
"(#	c #483C64",
"_#	c #9F87D9",
":#	c #393050",
"<#	c #202329",
"[#	c #2F343C",
"}#	c #373C44",
"|#	c #363B44",
"1#	c #2D333A",
"2#	c #020203",
"3#	c #504370",
"4#	c #0C0A15",
"5#	c #1D172C",
"6#	c #6A5A93",
"7#	c #332A49",
"8#	c #8470B6",
"9#	c #4B3F68",
"0#	c #030304",
"a#	c #080A0C",
"b#	c #0A0C0F",
"c#	c #07090B",
"d#	c #9B84D5",
"e#	c #8C76BF",
"f#	c #312846",
"g#	c #040405",
"h#	c #0F1114",
"i#	c #090611",
"j#	c #7967A5",
"k#	c #151021",
"l#	c #554876",
"m#	c #A48BE0",
"n#	c #564978",
"o#	c #2C2440",
"p#	c #3F3459",
"q#	c #5C4D80",
"r#	c #8671B8",
"s#	c #A58BE1",
"t#	c #4E416C",
"u#	c #000101",
"v#	c #13161A",
"w#	c #343941",
"x#	c #3E444E",
"y#	c #1F2327",
"z#	c #40355A",
"A#	c #AA90E7",
"B#	c #9E86D7",
"C#	c #927BC7",
"D#	c #0B0915",
"E#	c #060709",
"F#	c #343A42",
"G#	c #2C3037",
"H#	c #382F50",
"I#	c #A189DB",
"J#	c #2F2743",
"K#	c #0C0E11",
"L#	c #3D444D",
"M#	c #3D434C",
"N#	c #14161A",
"O#	c #AC91EA",
"P#	c #090811",
"Q#	c #040507",
"R#	c #2A2F36",
"S#	c #383E47",
"T#	c #1A1E22",
"U#	c #201A2D",
"V#	c #73619E",
"W#	c #07050D",
"X#	c #221B32",
"Y#	c #7966A6",
"Z#	c #7765A4",
"`#	c #100C1A",
" $	c #332A48",
".$	c #1A1527",
"+$	c #2D2641",
"@$	c #564876",
"#$	c #8773B9",
"$$	c #9780CE",
"%$	c #342C4A",
"&$	c #534673",
"*$	c #A38ADE",
"=$	c #9982D1",
"-$	c #08050E",
";$	c #72609D",
">$	c #181324",
",$	c #7E6BAD",
"'$	c #7E6AAD",
")$	c #201A30",
"!$	c #625388",
"~$	c #836EB4",
"{$	c #7563A1",
"]$	c #7A67A8",
"^$	c #261F36",
"/$	c #130E20",
"($	c #150F24",
"_$	c #05030A",
":$	c #0D0A17",
"<$	c #8F78C3",
"[$	c #66578E",
"}$	c #181325",
"|$	c #070510",
"1$	c #5F4D8D",
"2$	c #7761AE",
"3$	c #594883",
"4$	c #221B36",
"5$	c #302845",
"6$	c #907AC6",
"7$	c #020102",
"8$	c #574781",
"9$	c #9277D4",
"0$	c #7B65B5",
"a$	c #2E2446",
"b$	c #342B49",
"c$	c #2A233D",
"d$	c #231C39",
"e$	c #957AD8",
"f$	c #514470",
"g$	c #68578F",
"h$	c #A38ADF",
"i$	c #937CCA",
"j$	c #68588F",
"k$	c #7862B0",
"l$	c #6E59A2",
"m$	c #130D21",
"n$	c #4E426D",
"o$	c #6C5B96",
"p$	c #AB90E9",
"q$	c #9B83D4",
"r$	c #8A74BD",
"s$	c #6E5C97",
"t$	c #4D416C",
"u$	c #1F1831",
"v$	c #614F8F",
"w$	c #8971C8",
"x$	c #8169BE",
"y$	c #2C2245",
"z$	c #06040B",
"A$	c #171123",
"B$	c #352C4C",
"C$	c #453961",
"D$	c #534573",
"E$	c #5B4E7F",
"F$	c #50436E",
"G$	c #44395F",
"H$	c #151122",
"I$	c #29203F",
"J$	c #3E325E",
"K$	c #151024",
"L$	c #151515",
"M$	c #0E0E0E",
"N$	c #0F0F0F",
"                                                                                                                                            ",
"                                                                                                                                            ",
"                                                                                                                                            ",
"                                                                                                                                            ",
"                                                                                                                                            ",
"                                                                                                                                            ",
"                                                                                                                                            ",
"                                                                                                                                            ",
"                                      . + @ # $ % &                                                                                         ",
"                                    * # = - ; > , $ '                                                                                       ",
"                                  @ $ ) ! ~ { ] ^ $ #                                                                                       ",
"                                @ / ( _ : < [ } | $ $ &                                                                                     ",
"                              1 $ 2 3 < 4 5 6 7 8 9 0 $ @ % a $ $ $ $ b + % c   d @                                                         ",
"                              % $ e f g h i j $ k l m $ 8 n o p q r s t u 8 $ # $ $ v                                                       ",
"                                # w x y $ z A B C D E F G H I J K L M N O P Q R r S $ # d                                                   ",
"                                @ $ T U V W X Y D D Z `  . ...D D D D .. . .Z +.@.#.$.$ $ @ %.                                              ",
"                                * $ &.*.=.-.D D D D D D D D D D D D D D D D D D D ` ;.>.,.'.$ %                                             ",
"                                v # $ ).D D D D D D D D D D D D D D D D D D D D D D D D !.~.{.$ @                                           ",
"                                # ].^.I D D D D D D D D D D D D D D D D D D D D D D D D D Y /.(._.# d                                       ",
"                            v # S :.<.D D D D D D D D D D D D D D [.}.|.1.2.3.4.5.D D D D D D 6.7.8.# +                                     ",
"                            # 9.0.a.D D D D D D D D D D D D D D !.b.c.d.e.f.g.h.i.j.D D D D D D k.l.# # m.                                  ",
"                          n.o.p.q.D D D D D D D D D D D D D D r.s.].n.t.u.v.w.x.y.z.A.D D D D D D 4.B.C.%         d v                       ",
"                        n.$ D.r...D D D D D D D D D D D D D D E.$ F.G.H.I.J.K.L.M.N.O.P.D D D D D D Q.R.o.% d @ # $ $ *                     ",
"                    # # x.S.T.D D D D D D D D D D D D D D D U.V.$ W.X.Y.Y.Y.Y.Z.`.$  +.+D D D D D D D ++@+$ 8 S $ #+$+_.%                   ",
"                    n.$ %+&+P.D D D D D D D D D D D D D D D D *+$ =+-+X.Y.Y.Y.Y.K.$ ;+<.D D D D D D D >+,+'+m )+z !+~+{+$ +                 ",
"                    % $ ]+=.D D D D D D D D D D D D D D D D D <.^+S /+(+_+:+<+[+=+$ }+|+D D D D D D D D Y 1+.+2+0 3+4+5+6+#                 ",
"                    # 7+I D D D D D D D D D D D D D D D D D D U.8+R 9+$ $ $ $ $ $ 0+a+D D D D D D D D D D D D b+c+d+e+f+g+h+d               ",
"                  n.i+j+=.D D D D D D D D D D D D D D D D D D D U.k+l+m+n+$ o+p+q+r+P.D D D D D D D D D D D D s+t+u+v+< w+x+$               ",
"                  $ y+z+D D D D D D D D D D D D D D D D D D D D D D U.[.J *.3.A+B+D D D D D D D D D D D D D D A.C+$ D+E+4 F+$ +             ",
"                d $ G+H+D D D D D D D D D D D D D D D D D D D D D D D D D ....D D D D D D D D D D D D D D D D U.I+$ i J+K+L+M+$             ",
"                # $ N+O+D D D D D D D D D D D D D D D D D D D D D D D D D D D D D D D D D D D D D D D D D D D O+P+Q+R+S+T+U+V+$ d           ",
"                a W+++D D D D D D D D D D H+X+Y+Z+`+ @.@D D D D D D D D D D D D D D D D D D D D D D D D D D D D +@@@$ #@$@%@&@$ @           ",
"                $ *@=@D D D D D D D D -@;@>@0+,@'@)@m !@H .@D D D D D D D D D D D D D D D D D D D D D D D D D D D ~@{@]@^@%@6 _.#           ",
"              * $ /@(@D D D D D D U._@:@x.$ M.<@[@}@|@$ C.1@2@5.D D D D D D D D D D D D D D D D D D D D D D D D D 3@4@o.5@6@7@h+%           ",
"              @ 8 8@` D D D D D O+9@0@$ a@L.b@:+c@-+d@e@|@$ f@g@..D D D D D D D D D D D D D D D D D D D D D D D D D 3.h@$ i@j@].%           ",
"              n.z k@P.D D D D D l@m@$ n@o@p@Y.Y.Y.Y.Y.Z.q@<@$ r@A+D D D D D D D D D D D D D D D D D D D D D D D D D D s@t@w x $ @           ",
"              n.u@;@U.D D D D P.v@Q+<@w@Y.Y.Y.Y.Y.Y.Y.Y.x@y@w.z@A@B@D D D D D D D D D D D D D D D D D D D D D D D P.C@D@E@$ $ $             ",
"              * F@G@U.D D D D H+H@w I@p@Y.Y.Y.Y.Y.Y.Y.Y.Y.J@K@L@M@[.D D D D D D D D D D D D D D D D D D D D D D N@O@P@Q@$ $ @               ",
"              n.u@R@U.D D D D K S@T@U@Y.Y.Y.Y.Y.Y.Y.Y.Y.Y.X.V@# W@X@D D D D D D D D D D D D D D D D D D D D D  .Y@$ $ # %                   ",
"              # 9+Z@U.D D D D K S@M.`@Y.Y.Y.Y.Y.Y.Y.Y.Y.Y.X. ## W@.#D D D D D D D D D D D D D D D D D D D D D +#@#$ *                       ",
"              n.S ##-.D D D D H+W@S I@p@Y.Y.Y.Y.Y.Y.Y.Y.Y.J@$#L@%#[.D D D D D D D D D D D D D D D D D D D D D O+E.$ +                       ",
"              n.$ *+Z D D D D P.&#*#<@=#Y.Y.Y.Y.Y.Y.Y.Y.x@-#w.;#>#5.D D D D D D D D D +#+#D D D D D D D D D D P.,#$ &                       ",
"              & $ '#.#D D D D D Q.R $ )#o@Z.x@Y.Y.Y.X.!#q@~#$ {#A+D D D D D D D U.4.]#^#^#/#(@D D D D D D D D 4.(#$ @                       ",
"              %.$  +_#D D D D D D 9@:#$ w.<#[#}#H.|#1#K@2#$ (#C@D D D D D D D U./.3#4#$ $ 5#6#4.D D D D D D D g@7##                         ",
"              % $ $ 8# .D D D D D U.N 9#o+S 0#a#b#c#M.o.y.Q d#5.D D D D D D U.e#f#$ g#h#/+# i#j#D D D D D D 5.>#k#%                         ",
"                % $ l#` D D D D D D D m#;@n#0@)@'@o#p#q#r#j.D D D D D D D D s#t#u#v#w#!#x#y#$ z#A#D D D D D Z b.$ @                         ",
"                  $ t+g@D D D D D D D D D |+B#++I 3.l@.@D D D D D D D D D D C#D#E#F#Y.Y.Y.G#$ H#Y D D D D D I#J#$                           ",
"                  # o+@#B+D D D D D D D D D D D D D D D D D D D D D D D D ..^#$ K#L#Y.Y.M#N#$ p.O#D D D D D N+$ n.                          ",
"                  @ x.z#+.D D D D D D D D D D D D D D D D D D D D D D D D D Y+P#Q#R#S#o@T#$ U#9@D D D D D r.c.$ &                           ",
"                    n.$ V#U.D D D D D D D D D D D D D D D D D D D D D D D D |+,#W#0#c#Q#S X#Y#Z D D D D ` Z#`#$ %                           ",
"                    %.$  +X D D D D D D D D D D D D D D D D D D D D D D D D D !.j+ $.$+$@$#$(@D D D D D $$%$$ n.%                           ",
"                      % n &$*$D D D D D D D D D D D D D D D D D D D D D D D D D j.r.=$J A+B@D D D D D H+{#$ %                               ",
"                        # -$;$[.D D D D D D D D D D D D D D D D D D D D D D D D D D D D D D D D D D Y #.F@#                                 ",
"                        ' $ >$,$U.D D D D D D D D D D D D D D D D D D D D D D D D D D D D D D D D U.'$)$$ *                                 ",
"                        c $ $ !$(@D D D D D D D D D D D D D D D D D D D D D D D D D D D D D D D ` ~$;#$ @                                   ",
"                        # $ $ R {$_#D D D D D D D D D D D D D D D D D D D D D D D D D D D D D [.]$^$$ d                                     ",
"                      n.8 /$($_$:$R <$P.D D D D D D D D D D D D D D D D D D D D D D D D D D q.[$}$$ &                                       ",
"                      # |$1$2$3$4$$ 5$8+D D D D D D D D D D D D D D D D D D D D D D D D Y 6$h.7$# %.                                        ",
"                      + / 8$: 9$0$a$$ b$s+A.M U.D D D D D D D D D D D D D D D D D D P.!.B c$$ # v                                           ",
"                        # d$~ e$< 6@e n f$1@t+g$_@h$P.D D D D D D D D D D D D P.h$i$j${.$ $ @                                               ",
"                        * $ > k$E+E+l$m$# $ $ $ t@n$o$8+d#.@P.D D O+D p$H+q$r$s$t$)$$ $ $ #                                                 ",
"                          @ 8 u$v$w$x$y$$ # * n.# S z$A$ +B$C$D$l.E$F$G$7#7+H$j S # n.& % n.                                                ",
"                            n.$ $ I$J$K$$ d       n.+ % $ $ $ $ $ $ $ $ $ $ n.@ +                                                           ",
"                              & % $ $ a &                   d + . L$M$@                                                                     ",
"                                    N$                                                                                                      ",
"                                                                                                                                            ",
"                                                                                                                                            ",
"                                                                                                                                            ",
"                                                                                                                                            ",
"                                                                                                                                            "};
