/* XPM */
static const char * coin_xpm[] = {
"30 29 227 2",
"  	c None",
". 	c #FDE7A5",
"+ 	c #FEE292",
"@ 	c #FEDF89",
"# 	c #FEDE82",
"$ 	c #FEE18D",
"% 	c #FEE396",
"& 	c #FDE59E",
"* 	c #FEDC76",
"= 	c #FFD865",
"- 	c #FFD54F",
"; 	c #FFD54D",
"> 	c #FFD54E",
", 	c #FFD653",
"' 	c #FED96B",
") 	c #FEDD7E",
"! 	c #FEDE80",
"~ 	c #FED44E",
"{ 	c #FDD14A",
"] 	c #FCD047",
"^ 	c #FCCF47",
"/ 	c #FCD048",
"( 	c #FDD24B",
"_ 	c #FFD759",
": 	c #FDE18D",
"< 	c #FDE59D",
"[ 	c #FED75F",
"} 	c #FDD34C",
"| 	c #F7C738",
"1 	c #F7BF1C",
"2 	c #FBC014",
"3 	c #FDC110",
"4 	c #FDC10F",
"5 	c #FAC015",
"6 	c #F6C022",
"7 	c #F9CB3F",
"8 	c #FED44D",
"9 	c #FFD550",
"0 	c #FEDA70",
"a 	c #FFD75E",
"b 	c #FED54E",
"c 	c #F8C738",
"d 	c #FDC005",
"e 	c #FEC107",
"f 	c #FCC005",
"g 	c #F9C11F",
"h 	c #F9CB40",
"i 	c #FED96A",
"j 	c #FED862",
"k 	c #F7C228",
"l 	c #FDC107",
"m 	c #FEC100",
"n 	c #FEC105",
"o 	c #FBBF07",
"p 	c #F8C737",
"q 	c #FEDA6E",
"r 	c #FED34D",
"s 	c #F7C023",
"t 	c #FEC101",
"u 	c #FDD582",
"v 	c #FEC748",
"w 	c #FDC009",
"x 	c #F8C636",
"y 	c #FEE089",
"z 	c #FEE190",
"A 	c #FFD552",
"B 	c #F8C633",
"C 	c #FEC108",
"D 	c #FDCC5F",
"E 	c #FDEDC7",
"F 	c #FDDA93",
"G 	c #FDC32A",
"H 	c #FCBF06",
"I 	c #F9CA3E",
"J 	c #FFD657",
"K 	c #FBCE45",
"L 	c #FABE05",
"M 	c #FEC432",
"N 	c #FEE6B5",
"O 	c #FFF9E0",
"P 	c #FFF9E1",
"Q 	c #FFF5D8",
"R 	c #FDD585",
"S 	c #FEC216",
"T 	c #F9C11C",
"U 	c #FEDC79",
"V 	c #FDE49A",
"W 	c #FFD44E",
"X 	c #F8C32A",
"Y 	c #FDDD9D",
"Z 	c #FEF6D9",
"` 	c #FEF4D5",
" .	c #FEF1CE",
"..	c #FFF8DF",
"+.	c #FEEFCA",
"@.	c #FEC32B",
"#.	c #F8C93B",
"$.	c #FEDD7A",
"%.	c #FED34C",
"&.	c #FAC013",
"*.	c #FEC000",
"=.	c #FEEEC8",
"-.	c #FED176",
";.	c #FEE7B8",
">.	c #FECC5D",
",.	c #FDCE6A",
"'.	c #FEC106",
").	c #FDE7A2",
"!.	c #FFDA6E",
"~.	c #FBCE44",
"{.	c #FCBF04",
"].	c #FEECC3",
"^.	c #FEE0A6",
"/.	c #FEEABF",
"(.	c #FEC104",
"_.	c #FBC011",
":.	c #FCD149",
"<.	c #FDE18E",
"[.	c #FFDA6C",
"}.	c #FEC005",
"|.	c #FED688",
"1.	c #FDE2A9",
"2.	c #FEC436",
"3.	c #FEC109",
"4.	c #FDC10D",
"5.	c #FCCE45",
"6.	c #FEDE7E",
"7.	c #FFD969",
"8.	c #F7C534",
"9.	c #FEC113",
"0.	c #FEDB95",
"a.	c #FFF9E2",
"b.	c #FEC10D",
"c.	c #FDC10B",
"d.	c #FEDB74",
"e.	c #FFD96B",
"f.	c #F7C635",
"g.	c #FEC10A",
"h.	c #FEC324",
"i.	c #FEF5D7",
"j.	c #FEC640",
"k.	c #FEDA6D",
"l.	c #F9CB3E",
"m.	c #FEC10E",
"n.	c #FEE8BA",
"o.	c #FED171",
"p.	c #FEF0CE",
"q.	c #FFFAE2",
"r.	c #FED071",
"s.	c #FDDF87",
"t.	c #FEDB73",
"u.	c #FDD24A",
"v.	c #FBBF09",
"w.	c #FDE0A4",
"x.	c #FDDC9B",
"y.	c #FEC32A",
"z.	c #FEE8B9",
"A.	c #FEEFCB",
"B.	c #FECD65",
"C.	c #FEC103",
"D.	c #F9BE14",
"E.	c #FDE499",
"F.	c #FDE08A",
"G.	c #FAC221",
"H.	c #FDCD65",
"I.	c #FFF7DD",
"J.	c #FEF6DA",
"K.	c #FEF5D9",
"L.	c #FEC434",
"M.	c #F6C32E",
"N.	c #FFD75A",
"O.	c #FFD658",
"P.	c #F8C739",
"Q.	c #FEC006",
"R.	c #FED075",
"S.	c #FEF0CC",
"T.	c #FEEFCC",
"U.	c #FDCB60",
"V.	c #FBBF0D",
"W.	c #FEDF85",
"X.	c #F7C01F",
"Y.	c #FDCB5E",
"Z.	c #FDEEC7",
"`.	c #FDD37A",
" +	c #F8C430",
".+	c #FEE18F",
"++	c #FCCF46",
"@+	c #FBC012",
"#+	c #FEC102",
"$+	c #FED279",
"%+	c #F7C01D",
"&+	c #FDE393",
"*+	c #FFD551",
"=+	c #FACD43",
"-+	c #FABF10",
";+	c #F7BF1A",
">+	c #FDD149",
",+	c #FFD656",
"'+	c #FACE44",
")+	c #F9C120",
"!+	c #FCBF05",
"~+	c #F8C32B",
"{+	c #FDE291",
"]+	c #FDDF85",
"^+	c #F7C839",
"/+	c #F9BF18",
"(+	c #FDC007",
"_+	c #FCC110",
":+	c #F7BF1D",
"<+	c #FACC42",
"[+	c #FEE28F",
"}+	c #FFD75B",
"|+	c #FBCF45",
"1+	c #FACB3E",
"2+	c #F9C736",
"3+	c #F9C634",
"4+	c #F9C838",
"5+	c #FBCC40",
"6+	c #FED967",
"7+	c #FDE497",
"8+	c #FFD75F",
"9+	c #FFD967",
"0+	c #FEDE81",
"a+	c #FDE395",
"b+	c #FED65A",
"c+	c #FED75E",
"d+	c #FEDD7D",
"                                                            ",
"                        . + @ # $ %                         ",
"                  & * = - ; ; > ; ; , ' )                   ",
"                ! - - - ~ { ] ^ / ( - - - _ :               ",
"            < [ - - } | 1 2 3 4 3 5 6 7 8 - 9 0             ",
"          % a - b c 5 d e e e e e e e f g h - > i           ",
"          j - } k l e e e e e m n e e e e o p ~ > q         ",
"        ' - r s e e e e e e t u v n e e e e w x - 9 y       ",
"      z A - B C e e e e e m D E F G m e e e e H I - J       ",
"      q - K L e e e e e M N O P P Q R S e e e e T r - U     ",
"    V > W X e e e e e t Y P Z `  ...+.@.e e e e d #.- =     ",
"    $.- %.&.e e e e e *.=...-.;.>.-.,.'.e e e e e 1 W 9 ).  ",
"    !.- ~.{.e e e e e m ].O ^./.>.(.C e e e e e e _.:.> <.  ",
"    [.- c }.e e e e e n |...P ..1.2.3.e e e e e e 4.5.> 6.  ",
"    7.- 8.n e e e e e e 9.0.` a.a.` R b.e e e e e c.~.> d.  ",
"    e.- f.n e e e e e e e g.h.].Q P i.j.e e e e e c.~.> U   ",
"    k.- l.d e e e e e e m.g.m n.o.p.q.r.t e e e e 4 ^ > s.  ",
"    t.- u.v.e e e e e *.w.x.y.z.>.A.a.B.C.e e e e D.} ; E.  ",
"    F.> 8 G.e e e e e H.I.P J.K.Z P  .L.e e e e '.M.- N.    ",
"      O.- P.Q.e e e e (.R.S.P P P T.U.3.e e e e V.:.- !.    ",
"      W.- ~ X.e e e e e C.*.Y.Z.`.e '.e e e e '. +> ; .+    ",
"        N.- ++@+e e e e e e #+$+M e e e e e e %+8 - d.      ",
"        &+*+- =+-+e e e e e e m '.e e e e e ;+>+- ,+        ",
"          ! > - '+)+d e e e e e e e e e !+~+( - J {+        ",
"            ]+A - 8 ^+/+4.(+e e e (+_+:+<+W - ,+[+          ",
"              {+}+- - %.|+1+2+3+4+5+] ~ - > 6+7+            ",
"                  U 8+; > - - - - - > > 9+0+                ",
"                      a+d.b+O.O.J c+d+<                     ",
"                                                            "};
