/* XPM */
static const char *cursor_xpm[] = {
"20 31 296 2",
"  	c None",
". 	c #050505",
"+ 	c #101010",
"@ 	c #181818",
"# 	c #323232",
"$ 	c #23201A",
"% 	c #806E37",
"& 	c #776A3F",
"* 	c #3C351E",
"= 	c #F7D864",
"- 	c #BCAD51",
"; 	c #1F1F19",
"> 	c #333125",
", 	c #CDC58C",
"' 	c #CEC676",
") 	c #C9C745",
"! 	c #666445",
"~ 	c #303024",
"{ 	c #C3C388",
"] 	c #DDD578",
"^ 	c #FBEF58",
"/ 	c #757043",
"( 	c #626055",
"_ 	c #101011",
": 	c #3D3619",
"< 	c #F8D915",
"[ 	c #FDDA52",
"} 	c #FEDB7F",
"| 	c #FAEAAC",
"1 	c #CCC699",
"2 	c #22201C",
"3 	c #232323",
"4 	c #38322F",
"5 	c #E2C9B9",
"6 	c #E4C7B9",
"7 	c #E4C2B4",
"8 	c #F2D6CA",
"9 	c #DEC6C4",
"0 	c #A88DA9",
"a 	c #716171",
"b 	c #332F3D",
"c 	c #CDBCF7",
"d 	c #CFB7EA",
"e 	c #D1AED1",
"f 	c #E9C9DF",
"g 	c #E7C7DD",
"h 	c #D2AFD3",
"i 	c #7D677C",
"j 	c #372933",
"k 	c #2C1E2A",
"l 	c #AE65A7",
"m 	c #CB89B8",
"n 	c #EFB0CF",
"o 	c #E2C5DD",
"p 	c #D4B3D3",
"q 	c #C982B8",
"r 	c #C987B6",
"s 	c #2B1D27",
"t 	c #33262F",
"u 	c #CD90BD",
"v 	c #D79BC4",
"w 	c #E5ABCD",
"x 	c #E4C8E8",
"y 	c #E0C2E1",
"z 	c #D69EB8",
"A 	c #DB9FC2",
"B 	c #D79BC2",
"C 	c #986689",
"D 	c #805574",
"E 	c #3A2D35",
"F 	c #ECB5D4",
"G 	c #E6AFD1",
"H 	c #DBA5CB",
"I 	c #E7CEF4",
"J 	c #EFD3EF",
"K 	c #FECCCA",
"L 	c #F2BED1",
"M 	c #EAB3D3",
"N 	c #D38EBF",
"O 	c #A16C92",
"P 	c #21222A",
"Q 	c #363539",
"R 	c #DDD6E9",
"S 	c #C5C0DB",
"T 	c #9796C4",
"U 	c #B48DC5",
"V 	c #CAA0CD",
"W 	c #F8D7E5",
"X 	c #F4B4D0",
"Y 	c #EE9DC3",
"Z 	c #B782BE",
"` 	c #A187BA",
" .	c #868DB9",
"..	c #373840",
"+.	c #5F5F5F",
"@.	c #38363A",
"#.	c #E3D9EB",
"$.	c #D0CCE1",
"%.	c #ACB7D4",
"&.	c #BD88BD",
"*.	c #C792C2",
"=.	c #DBC6DD",
"-.	c #EBB7D3",
";.	c #F1B0CF",
">.	c #C8A6D0",
",.	c #BA9AC6",
"'.	c #AD8FC0",
").	c #2E445F",
"!.	c #4D5C69",
"~.	c #3D3539",
"{.	c #F6D7E7",
"].	c #F0E4EE",
"^.	c #E7F5F8",
"/.	c #DF90BA",
"(.	c #CB7EB2",
"_.	c #8D95C3",
":.	c #D8C4DC",
"<.	c #F7DAE9",
"[.	c #F4E9F4",
"}.	c #EABDD4",
"|.	c #E576AD",
"1.	c #3B6FA2",
"2.	c #145B83",
"3.	c #202A27",
"4.	c #373938",
"5.	c #DEE7E1",
"6.	c #BFCAD5",
"7.	c #8090C0",
"8.	c #DCC4DD",
"9.	c #DDCFDF",
"0.	c #A0CDD1",
"a.	c #B9ABCB",
"b.	c #C59ECC",
"c.	c #C9D3EC",
"d.	c #A9AAD0",
"e.	c #7F6BAD",
"f.	c #8AC0C8",
"g.	c #76CAC3",
"h.	c #38CCB9",
"i.	c #4B7169",
"j.	c #5B5A5A",
"k.	c #080808",
"l.	c #353938",
"m.	c #D6E9E5",
"n.	c #B4C6D4",
"o.	c #687AB8",
"p.	c #DAD4EB",
"q.	c #DEE2EE",
"r.	c #A4D7D6",
"s.	c #B2AACE",
"t.	c #B894CC",
"u.	c #B5CAE8",
"v.	c #96A8D3",
"w.	c #6B79BC",
"x.	c #90D2D3",
"y.	c #7CDBD1",
"z.	c #3CDECD",
"A.	c #336469",
"B.	c #464855",
"C.	c #2E2E2E",
"D.	c #35353D",
"E.	c #D7D6FA",
"F.	c #CDD2F5",
"G.	c #BCCDEA",
"H.	c #D3D5FB",
"I.	c #C9D0F6",
"J.	c #9ABEDE",
"K.	c #C3C6F2",
"L.	c #D0CAFB",
"M.	c #B5C0ED",
"N.	c #CFC3FA",
"O.	c #36BED1",
"P.	c #1B9EB8",
"Q.	c #2C4682",
"R.	c #7480BD",
"S.	c #737EB2",
"T.	c #1E1F26",
"U.	c #424242",
"V.	c #2F3A3D",
"W.	c #BDEBFA",
"X.	c #BEE9FB",
"Y.	c #BEE3F5",
"Z.	c #B1D9F8",
"`.	c #AED9F7",
" +	c #B3DFF1",
".+	c #AAE1F9",
"++	c #A4E3FD",
"@+	c #81E5F1",
"#+	c #81BACF",
"$+	c #827CA3",
"%+	c #237A86",
"&+	c #176576",
"*+	c #212B54",
"=+	c #4A5277",
"-+	c #495070",
";+	c #1A1A1D",
">+	c #444444",
",+	c #2B3D3D",
"'+	c #A9F8F7",
")+	c #B3F6FC",
"!+	c #C0EFFD",
"~+	c #95DBF7",
"{+	c #9ADDF6",
"]+	c #BFEEF9",
"^+	c #98EDF9",
"/+	c #7EEEF9",
"(+	c #6DFEFE",
"_+	c #53BBBC",
":+	c #1C1B1B",
"<+	c #141313",
"[+	c #131313",
"}+	c #131312",
"|+	c #1A2E2D",
"1+	c #24B9B3",
"2+	c #50C1C3",
"3+	c #78CDD7",
"4+	c #6FB3DE",
"5+	c #5E93BD",
"6+	c #303C40",
"7+	c #273A3C",
"8+	c #215355",
"9+	c #14EEFA",
"0+	c #17B1BC",
"a+	c #252424",
"b+	c #3B3B3B",
"c+	c #203130",
"d+	c #6AC5C3",
"e+	c #66BDC7",
"f+	c #64B0CE",
"g+	c #568CAF",
"h+	c #577D9D",
"i+	c #1F2225",
"j+	c #3D3D3D",
"k+	c #283B45",
"l+	c #7FCDFA",
"m+	c #5FAECA",
"n+	c #2D8983",
"o+	c #7D8180",
"p+	c #263434",
"q+	c #79B9CE",
"r+	c #4788C9",
"s+	c #223348",
"t+	c #484848",
"u+	c #585858",
"v+	c #333045",
"w+	c #ACA0F9",
"x+	c #80A6D6",
"y+	c #2DB4AC",
"z+	c #193230",
"A+	c #767676",
"B+	c #060606",
"C+	c #1B302F",
"D+	c #4EC2BD",
"E+	c #409C9A",
"F+	c #202D3C",
"G+	c #4B4B4B",
"H+	c #2B393B",
"I+	c #8AC2CC",
"J+	c #6DBEC0",
"K+	c #42C3BD",
"L+	c #1D3634",
"M+	c #7A7A7A",
"N+	c #192827",
"O+	c #389B97",
"P+	c #438885",
"Q+	c #494949",
"R+	c #555C5C",
"S+	c #6D9F9F",
"T+	c #62AE9B",
"U+	c #56BD9D",
"V+	c #587A77",
"W+	c #768484",
"X+	c #666666",
"Y+	c #1A1A1A",
"Z+	c #1A1B1B",
"`+	c #121314",
" @	c #578828",
".@	c #71B03D",
"+@	c #98CCC8",
"@@	c #7DA6A7",
"#@	c #262626",
"$@	c #8A8A8A",
"%@	c #100F10",
"&@	c #87A590",
"*@	c #B0D6BB",
"=@	c #76B4B3",
"-@	c #5C9090",
";@	c #393939",
">@	c #8AA09C",
",@	c #A6C2BC",
"'@	c #5E9696",
")@	c #517D7D",
"!@	c #1B1E1D",
"~@	c #212423",
"{@	c #1B1F1F",
"]@	c #585959",
"                                        ",
". +                                     ",
". @ #                                   ",
". $ % &                                 ",
". * = - ;                               ",
". > , ' ) !                             ",
". ~ { ] ^ / (                           ",
"_ : < [ } | 1 2                         ",
"3 4 5 6 7 8 9 0 a                       ",
"+ b c d e f g h i j                     ",
". k l m n o p l q r s                   ",
". t u v w x y z A B C D                 ",
". E F G H I J K L M N O P               ",
". Q R S T U V W X Y Z `  ...+.          ",
". @.#.$.%.&.*.=.-.;.>.,.'.).!.          ",
". ~.{.].^./.(._.:.<.[.}.|.1.2.3.        ",
". 4.5.6.7.8.9.0.a.b.c.d.e.f.g.h.i.j.    ",
"k.l.m.n.o.p.q.r.s.t.u.v.w.x.y.z.A.B.    ",
"C.D.E.F.G.H.I.J.K.L.J.M.N.O.P.Q.R.S.T.  ",
"U.V.W.X.Y.Z.`. +.+++@+#+$+%+&+*+=+-+;+  ",
">+,+'+)+!+~+{+]+^+/+(+_+@ :+<+[+}+[+[+  ",
">+|+1+2+3+4+5+6+7+8+9+0+a+              ",
"b+c+d+e+f+g+h+i+j+k+l+m+n+o+            ",
"3 p+x.q+r+s+t+  u+v+w+x+y+z+A+          ",
"B+C+D+E+F+      G+H+I+J+K+L+M+          ",
". N+O+P+Q+        R+S+T+U+V+W+X+        ",
"  Y+Z+              `+ @.@+@@@#@$@      ",
"                    %@&@*@=@-@3         ",
"                    ;@>@,@'@)@t+        ",
"                      !@~@{@]@          ",
"                                        "};
