/* XPM */
static const char * fogo_xpm[] = {
"65 40 582 2",
"  	c None",
". 	c #FBA82D",
"+ 	c #FBA71A",
"@ 	c #FBA704",
"# 	c #FBAB11",
"$ 	c #FBB026",
"% 	c #FBA51F",
"& 	c #FBA611",
"* 	c #FBA703",
"= 	c #FBA901",
"- 	c #FCAC05",
"; 	c #FBB016",
"> 	c #FBA925",
", 	c #FBA807",
"' 	c #FCAC02",
") 	c #FBAF02",
"! 	c #FBB313",
"~ 	c #FBB727",
"{ 	c #FABA21",
"] 	c #FABC22",
"^ 	c #FABE23",
"/ 	c #FAC125",
"( 	c #FA8321",
"_ 	c #FA841C",
": 	c #FBA520",
"< 	c #FBA612",
"[ 	c #FBA702",
"} 	c #FBAF01",
"| 	c #FBB100",
"1 	c #FBB400",
"2 	c #FBB600",
"3 	c #FAB900",
"4 	c #FBBC00",
"5 	c #FBBF04",
"6 	c #FAC115",
"7 	c #FAC21F",
"8 	c #FA8526",
"9 	c #FA851F",
"0 	c #F98414",
"a 	c #FA8714",
"b 	c #FA8E28",
"c 	c #F99222",
"d 	c #FA9219",
"e 	c #FA961D",
"f 	c #F99E20",
"g 	c #FA9F19",
"h 	c #FAA011",
"i 	c #FBA207",
"j 	c #FBA400",
"k 	c #FBA701",
"l 	c #FBA900",
"m 	c #FCAC01",
"n 	c #FBB202",
"o 	c #FBB502",
"p 	c #FAB703",
"q 	c #FBBB03",
"r 	c #FABD02",
"s 	c #FBBF01",
"t 	c #FBC000",
"u 	c #FBC00A",
"v 	c #FBC320",
"w 	c #FA8A1F",
"x 	c #FA8E25",
"y 	c #F8952A",
"z 	c #FA910E",
"A 	c #FA9206",
"B 	c #F9960F",
"C 	c #FA9915",
"D 	c #FA9C0D",
"E 	c #FAA512",
"F 	c #FBAF1B",
"G 	c #FBB21C",
"H 	c #FBAD12",
"I 	c #FBAB08",
"J 	c #FBB81A",
"K 	c #FCC425",
"L 	c #FCCD2D",
"M 	c #FCD532",
"N 	c #FCDB35",
"O 	c #FCDC35",
"P 	c #FCDD34",
"Q 	c #FCDA30",
"R 	c #FCD428",
"S 	c #FBCD1D",
"T 	c #FBC511",
"U 	c #FBC10F",
"V 	c #FA9421",
"W 	c #FA9205",
"X 	c #FA9501",
"Y 	c #FB9C05",
"Z 	c #FAB11E",
"` 	c #FBD63C",
" .	c #FCE748",
"..	c #FCE947",
"+.	c #FCDF40",
"@.	c #FBC72C",
"#.	c #FBCD2E",
"$.	c #FCE641",
"%.	c #FDEC45",
"&.	c #FDEC44",
"*.	c #FDEB43",
"=.	c #FDEB41",
"-.	c #FCE93F",
";.	c #FDE73D",
">.	c #FCE53A",
",.	c #FCE237",
"'.	c #FCDB34",
").	c #FCD236",
"!.	c #FBC51F",
"~.	c #FBC322",
"{.	c #FA8323",
"].	c #FB7E0E",
"^.	c #FA7D0A",
"/.	c #FA7D0B",
"(.	c #FA7F0D",
"_.	c #FA810B",
":.	c #F98309",
"<.	c #FB860B",
"[.	c #FA8912",
"}.	c #FA8E18",
"|.	c #FA9523",
"1.	c #FA9621",
"2.	c #FA9407",
"3.	c #FA9D08",
"4.	c #FBB219",
"5.	c #FBC123",
"6.	c #FBD535",
"7.	c #FCEC49",
"8.	c #FCF24E",
"9.	c #FCEF4A",
"0.	c #FCE340",
"a.	c #FBD22D",
"b.	c #FCDA35",
"c.	c #FDEA43",
"d.	c #FDEE45",
"e.	c #FCE940",
"f.	c #FDE83D",
"g.	c #FCE63B",
"h.	c #FCE33A",
"i.	c #FDE34C",
"j.	c #FCDA4A",
"k.	c #FCC725",
"l.	c #FBC221",
"m.	c #FA7F18",
"n.	c #FA7D0D",
"o.	c #FA7C03",
"p.	c #FB7D02",
"q.	c #FA8002",
"r.	c #FA8202",
"s.	c #FA8502",
"t.	c #FA8802",
"u.	c #FB8E05",
"v.	c #FB990C",
"w.	c #FA9D0D",
"x.	c #FA9C0B",
"y.	c #FA9C08",
"z.	c #FAA00A",
"A.	c #FBAE16",
"B.	c #FBC222",
"C.	c #FBCF2D",
"D.	c #FBD836",
"E.	c #FBDB37",
"F.	c #FBDD38",
"G.	c #FCE43F",
"H.	c #FDEA44",
"I.	c #FDEE46",
"J.	c #FDE940",
"K.	c #FDE339",
"L.	c #FDE449",
"M.	c #FDE559",
"N.	c #FCDB4B",
"O.	c #FBC827",
"P.	c #FBC324",
"Q.	c #FA8224",
"R.	c #FA8220",
"S.	c #FA801C",
"T.	c #FA7C02",
"U.	c #FA8D04",
"V.	c #FB9D0E",
"W.	c #FBB019",
"X.	c #FBB91E",
"Y.	c #FBBA1E",
"Z.	c #FBBB1E",
"`.	c #FBBD1F",
" +	c #FBC423",
".+	c #FBCD2A",
"++	c #FBD835",
"@+	c #FCE743",
"#+	c #FDF04A",
"$+	c #FEF24B",
"%+	c #FDF14A",
"&+	c #FDEF48",
"*+	c #FDE447",
"=+	c #FDE65A",
"-+	c #FCE459",
";+	c #FCD744",
">+	c #FBC520",
",+	c #FA8225",
"'+	c #FA8018",
")+	c #FA7C05",
"!+	c #FA8604",
"~+	c #FB9109",
"{+	c #FB950B",
"]+	c #FB980C",
"^+	c #FB9A0C",
"/+	c #FBA713",
"(+	c #FCBB1F",
"_+	c #FCC223",
":+	c #FCC424",
"<+	c #FCC726",
"[+	c #FBCE2C",
"}+	c #FBDB39",
"|+	c #FCEB46",
"1+	c #FDF14B",
"2+	c #FDF34C",
"3+	c #FDF24B",
"4+	c #FDE338",
"5+	c #FDE33E",
"6+	c #FDE44E",
"7+	c #FDE557",
"8+	c #FDE155",
"9+	c #FCCF35",
"0+	c #FBC321",
"a+	c #FA811D",
"b+	c #FA8020",
"c+	c #FA801E",
"d+	c #FA8121",
"e+	c #FA7E15",
"f+	c #FA7B03",
"g+	c #FA7B02",
"h+	c #FA7F01",
"i+	c #FA8906",
"j+	c #FCA514",
"k+	c #FDB01A",
"l+	c #FDB21B",
"m+	c #FDB41C",
"n+	c #FCB51C",
"o+	c #FCBC20",
"p+	c #FCC323",
"q+	c #FBD634",
"r+	c #FBDC38",
"s+	c #FBE43E",
"t+	c #FDED46",
"u+	c #FDF149",
"v+	c #FDE236",
"w+	c #FDE139",
"x+	c #FDE459",
"y+	c #FDDA4A",
"z+	c #FBC624",
"A+	c #FA8223",
"B+	c #FA7E0F",
"C+	c #FA7D09",
"D+	c #FA7E11",
"E+	c #F9801A",
"F+	c #FA7E14",
"G+	c #FA7C04",
"H+	c #FA7D03",
"I+	c #FA8406",
"J+	c #FB8F0C",
"K+	c #FC960F",
"L+	c #FC9910",
"M+	c #FC9A11",
"N+	c #FC9A10",
"O+	c #FCA012",
"P+	c #FDB019",
"Q+	c #FDB81D",
"R+	c #FDBA1E",
"S+	c #FDBB1F",
"T+	c #FCBE21",
"U+	c #FBC82B",
"V+	c #FCC92B",
"W+	c #FCC627",
"X+	c #FCC626",
"Y+	c #FBC826",
"Z+	c #FBCB28",
"`+	c #FBD735",
" @	c #FCE13D",
".@	c #FCE944",
"+@	c #FCE035",
"@@	c #FDE246",
"#@	c #FEE459",
"$@	c #FDE154",
"%@	c #FBCB2F",
"&@	c #FBC42A",
"*@	c #FA7F19",
"=@	c #FA7C06",
"-@	c #FA7E04",
";@	c #FB8A09",
">@	c #FC980F",
",@	c #FCA414",
"'@	c #FDAD17",
")@	c #FEAF18",
"!@	c #FDB018",
"~@	c #FEB31A",
"{@	c #FDB61C",
"]@	c #FDBC22",
"^@	c #FDCD33",
"/@	c #FDD53A",
"(@	c #FCD437",
"_@	c #FCE847",
":@	c #FCE645",
"<@	c #FCDE3E",
"[@	c #FBD838",
"}@	c #FBD533",
"|@	c #FCD734",
"1@	c #FCE23F",
"2@	c #FCE036",
"3@	c #FDE143",
"4@	c #FEE455",
"5@	c #FEE357",
"6@	c #FCD13A",
"7@	c #FBC528",
"8@	c #FA862E",
"9@	c #FA7F15",
"0@	c #FA8019",
"a@	c #F98327",
"b@	c #FA7E10",
"c@	c #FA8005",
"d@	c #FB8708",
"e@	c #FEAC17",
"f@	c #FDB219",
"g@	c #FFB41B",
"h@	c #FDBA21",
"i@	c #FDCB31",
"j@	c #FCE243",
"k@	c #FCEC4B",
"l@	c #FCE545",
"m@	c #FCDA3B",
"n@	c #FCEF4D",
"o@	c #FDF752",
"p@	c #FDF551",
"q@	c #FDF24D",
"r@	c #FCEF4B",
"s@	c #FCE034",
"t@	c #FDE036",
"u@	c #FEE149",
"v@	c #FEE358",
"w@	c #FDD541",
"x@	c #FAC421",
"y@	c #F9811F",
"z@	c #FA7D07",
"A@	c #FA7D08",
"B@	c #FA7C07",
"C@	c #FA7D0C",
"D@	c #FB8406",
"E@	c #FDA113",
"F@	c #FDB71D",
"G@	c #FDBF23",
"H@	c #FCC427",
"I@	c #FCC628",
"J@	c #FCC526",
"K@	c #FCD536",
"L@	c #FDEE4C",
"M@	c #FDF954",
"N@	c #FCF753",
"O@	c #FDF751",
"P@	c #FDF54F",
"Q@	c #FDF44D",
"R@	c #FDDF34",
"S@	c #FDE146",
"T@	c #FEE457",
"U@	c #FDD644",
"V@	c #FBC214",
"W@	c #F9862F",
"X@	c #FA821F",
"Y@	c #FA7E13",
"Z@	c #FA8120",
"`@	c #FB8326",
" #	c #FA8427",
".#	c #FB8B0A",
"+#	c #FD9D11",
"@#	c #FCA112",
"##	c #FCA615",
"$#	c #FDB41B",
"%#	c #FDB71C",
"&#	c #FDBC20",
"*#	c #FCC022",
"=#	c #FCD436",
"-#	c #FCE242",
";#	c #FCF853",
">#	c #FDE03C",
",#	c #FDE24F",
"'#	c #FEE458",
")#	c #FDD643",
"!#	c #FBC314",
"~#	c #FA8429",
"{#	c #FA801B",
"]#	c #FA7E03",
"^#	c #FA8204",
"/#	c #FA8B08",
"(#	c #FDA515",
"_#	c #FDB51C",
":#	c #FCD83A",
"<#	c #FCEF4C",
"[#	c #FDF854",
"}#	c #FDE458",
"|#	c #FCD23C",
"1#	c #FBC41E",
"2#	c #F98325",
"3#	c #FA7F03",
"4#	c #FB920C",
"5#	c #FDA615",
"6#	c #FCAA17",
"7#	c #FCAF19",
"8#	c #FCC122",
"9#	c #FCC727",
"0#	c #FCD838",
"a#	c #FCEA48",
"b#	c #FCF54F",
"c#	c #FCF751",
"d#	c #FDE13F",
"e#	c #FDE354",
"f#	c #FDE256",
"g#	c #FBCC31",
"h#	c #FAC425",
"i#	c #FA7D05",
"j#	c #FB7E03",
"k#	c #FB8605",
"l#	c #FB8B07",
"m#	c #FB950D",
"n#	c #FCAB17",
"o#	c #FCB71D",
"p#	c #FCB71E",
"q#	c #FCB41C",
"r#	c #FBB21A",
"s#	c #FBB119",
"t#	c #FBB41A",
"u#	c #FBC022",
"v#	c #FBD02F",
"w#	c #FBDC3B",
"x#	c #FBE845",
"y#	c #FCF14C",
"z#	c #FDE141",
"A#	c #FDE455",
"B#	c #FDDC4E",
"C#	c #FBC622",
"D#	c #F98429",
"E#	c #F98425",
"F#	c #FA8426",
"G#	c #FA811E",
"H#	c #FB7E08",
"I#	c #FA8302",
"J#	c #FA8E07",
"K#	c #FB9A0E",
"L#	c #FB9B0E",
"M#	c #FB990B",
"N#	c #FA9708",
"O#	c #FA9806",
"P#	c #FA9E0F",
"Q#	c #FBB828",
"R#	c #FBD73B",
"S#	c #FBE140",
"T#	c #FBDA39",
"U#	c #FBD431",
"V#	c #FBD936",
"W#	c #FCE741",
"X#	c #FDE350",
"Y#	c #FEE356",
"Z#	c #FAC31C",
"`#	c #FB7E04",
" $	c #FA8303",
".$	c #FA870D",
"+$	c #FA8B15",
"@$	c #FB8B03",
"#$	c #FA8D01",
"$$	c #FA8F01",
"%$	c #FAA219",
"&$	c #FBD13D",
"*$	c #FCEC4D",
"=$	c #FDF452",
"-$	c #FBDE3E",
";$	c #FAD230",
">$	c #FBDE3B",
",$	c #FCEA44",
"'$	c #FDF049",
")$	c #FDE43C",
"!$	c #FDE652",
"~$	c #FDD948",
"{$	c #FAC326",
"]$	c #FA8C3B",
"^$	c #F98737",
"/$	c #FA8631",
"($	c #F98727",
"_$	c #F98C1B",
":$	c #FB8B06",
"<$	c #FA8E0A",
"[$	c #FA900A",
"}$	c #FBA51E",
"|$	c #FBBB2E",
"1$	c #FAC030",
"2$	c #FBBA2A",
"3$	c #FBB221",
"4$	c #FBC32D",
"5$	c #FBE745",
"6$	c #FDF14C",
"7$	c #FDF24C",
"8$	c #FCE53B",
"9$	c #FCE442",
"0$	c #FDE758",
"a$	c #FDE55B",
"b$	c #FCDD50",
"c$	c #FCCB2E",
"d$	c #FBC323",
"e$	c #FA8D29",
"f$	c #F98B19",
"g$	c #FA8E21",
"h$	c #FA9B23",
"i$	c #FA9D24",
"j$	c #FAA41D",
"k$	c #FBC431",
"l$	c #FCE647",
"m$	c #FCE342",
"n$	c #FCEC48",
"o$	c #FDEA40",
"p$	c #FDE647",
"q$	c #FEE757",
"r$	c #FDDE50",
"s$	c #FCCE36",
"t$	c #FBC422",
"u$	c #FA9B27",
"v$	c #FA9D20",
"w$	c #FAB629",
"x$	c #FBCF38",
"y$	c #FBC42F",
"z$	c #FBB620",
"A$	c #FBCA2F",
"B$	c #FCDF3E",
"C$	c #FCD637",
"D$	c #FCD938",
"E$	c #FDE93F",
"F$	c #FCE63E",
"G$	c #FCE652",
"H$	c #FCD846",
"I$	c #FBCB32",
"J$	c #F99420",
"K$	c #FA9411",
"L$	c #F9960C",
"M$	c #FA9B11",
"N$	c #FAA214",
"O$	c #FAA111",
"P$	c #FBA011",
"Q$	c #FBA40C",
"R$	c #FBB115",
"S$	c #FBB315",
"T$	c #FBAA03",
"U$	c #FCAE06",
"V$	c #FBBC1A",
"W$	c #FBCE2B",
"X$	c #FCD934",
"Y$	c #FCDE36",
"Z$	c #FDDE36",
"`$	c #FCDD33",
" %	c #FCDA37",
".%	c #FCD63E",
"+%	c #FCCB2F",
"@%	c #FBC41D",
"#%	c #FA9D22",
"$%	c #FA9E1C",
"%%	c #FAA120",
"&%	c #FBA428",
"*%	c #FAA51E",
"=%	c #FBA717",
"-%	c #FBAE00",
";%	c #FBB90B",
">%	c #FBBF14",
",%	c #FBC316",
"'%	c #FBC413",
")%	c #FBC216",
"!%	c #FBC11D",
"~%	c #FBA80C",
"{%	c #FCAC03",
"]%	c #FBB008",
"^%	c #FBB207",
"/%	c #FBB406",
"(%	c #FBB70B",
"_%	c #FBBA19",
":%	c #FABD20",
"<%	c #FAA924",
"[%	c #FBA815",
"}%	c #FCAB19",
"|%	c #FBAF1F",
"1%	c #FAB227",
"                                                                                                                                  ",
"                                                                                                                                  ",
"                                                                                                                                  ",
"                                                                                                                                  ",
"                                                                                                                                  ",
"                                                                                                                                  ",
"                                                                                                                                  ",
"                                                                                                                                  ",
"                                                                                                                                  ",
"                                                                                                                                  ",
"                                                                                . + @ # $                                         ",
"                                                                                % & * = - ;                                       ",
"                                                                                  > , = ' ) ! ~ { ] ^ /                           ",
"                                                    ( _                         : < [ = ' } | 1 2 3 4 5 6 7                       ",
"                                                    8 9 0 a b   c d e     f g h i j k l m ) n o p q r s t u v                     ",
"                                                          w x   y z A B C D E F G H I J K L M N O P Q R S T U                     ",
"                                                                  V W X Y Z `  ...+.@.#.$.%.&.*.=.-.;.>.,.'.).!.~.                ",
"                                            {.].^./.(._.:.<.[.}.|.1.2.3.4.5.6.7.8.9.0.a.b.c.d.&.=.e.f.g.>.h.i.j.k.l.              ",
"                                            m.n.o.o.p.q.r.s.t.u.v.w.x.y.z.A.B.C.D.E.F.G.H.I.d.&.=.J.f.g.>.K.L.M.N.O.P.            ",
"                                    Q.R.      S.o.T.p.q.r.s.t.U.V.W.X.Y.Z.`. +.+++@+#+$+%+&+d.&.=.J.f.g.>.K.*+=+-+;+>+            ",
"                                          ,+'+)+o.T.p.q.!+~+{+]+^+/+(+_+:+<+[+}+|+1+2+3+#+&+d.&.=.J.f.g.>.4+5+6+7+8+9+0+          ",
"                          a+b+c+      d+e+^.T.f+f+g+T.h+i+j+k+l+m+n+o+_+p+<+C.q+D.r+s+t+u+&+d.&.=.J.f.g.>.4+v+w+i.x+y+z+          ",
"                      A+B+C+^.C+D+E+F+/.G+H+I+J+K+L+M+N+O+P+Q+R+S+T+U+V+W+X+Y+Z+`+ @.@&+u+&+d.&.=.J.f.g.>.4+v++@@@#@$@%@&@        ",
"                        *@=@o.o.o.)+G+o.o.-@;@>@,@'@)@!@~@{@]@^@/@).(@_@:@<@[@}@|@1@#+$+#+&+d.&.=.J.f.g.>.4+v+2@3@4@5@6@7@        ",
"        8@R.9@0@8@    a@b@G+o.o.o.o.o.o.o.o.-@c@d@L+e@f@g@{@h@i@j@k@l@m@n@o@p@q@r@9.2+$+#+&+d.&.=.J.f.g.>.4+v+s@t@u@v@w@x@        ",
"                    y@C+)+=@z@A@B@^.^.^.C@=@o.o.o.D@E@!@~@{@F@S+G@H@I@J@K@L@M@N@O@P@Q@$+#+&+d.&.=.J.f.g.>.4+v+s@R@S@T@U@V@        ",
"                W@X@Y@D+b@'+Z@A+      `@ #9@G+o.H+.#+#@###$#%#R+&#T+*#W+=#-#p@;#O@P@Q@$+#+&+d.&.=.J.f.g.>.4+v++@>#,#'#)#!#        ",
"                                    ~#{#b@A@o.o.o.]#^#/#(#_#%#R+&#T+*#J@:#<#[#;#O@P@Q@$+#+&+d.&.=.J.f.g.>.4+v+t@@@}#v@|#1#        ",
"                                  2#9@^.T.o.o.o.o.T.3#4#5#6#7#Q+&#T+8#p+9#0#a#b#c#P@Q@$+#+&+d.&.=.J.f.g.>.4+v+s@d#e#f#g#h#        ",
"                                        {#C@i#)+G+G+j#k#l#m#n#o#p#q#r#s#t#u#v#w#x#y#Q@$+#+&+d.&.=.J.f.g.>.4+v+s@z#A#B#C#          ",
"                                            D#E#F#G#H#q.I#J#K#L#M#N#O#P#Q#R#S#T#U#V#W#%+%+&+d.&.=.J.f.g.>.K.5+j@X#Y#6@Z#          ",
"                                                  9@`#q. $.$+$@$#$$$%$&$*$=$n@-$;$>$,$'$%+&+d.&.=.J.f.g.>.)$!$M.-+~$C#{$          ",
"                                                ]$^$/$($    _$:$<$[$}$|$1$2$3$4$5$6$7$$+%+&+d.&.=.J.f.g.8$9$0$a$b$c$d$            ",
"                                                          e$f$g$      h$i$j$k$l$_@m$n$#+&+&+d.&.=.o$f.g.p$q$=+r$s$t$              ",
"                                                                      u$v$w$x$y$z$A$B$C$D$G.c.*.=.E$;.F$G$f#H$I$                  ",
"                                                                  J$K$L$M$N$O$P$Q$R$S$T$U$V$W$X$Y$Z$`$ %.%+%@%                    ",
"                                                                        #%$%%%&%*%=%* l ' -%| ;%>%,%'%!#)%!%                      ",
"                                                                                    ~%l {%]%^%/%(%_%:%                            ",
"                                                                                  <%[%}%|%1%                                      ",
"                                                                                                                                  "};
