/* XPM */
static const char * vida_xpm[] = {
"50 50 143 2",
"  	c None",
". 	c #0E0D0D",
"+ 	c #0E0C0C",
"@ 	c #161414",
"# 	c #110F0F",
"$ 	c #222222",
"% 	c #020000",
"& 	c #080606",
"* 	c #1B1B1B",
"= 	c #3F0000",
"- 	c #411515",
"; 	c #3F0404",
"> 	c #451818",
", 	c #490001",
"' 	c #A70003",
") 	c #890002",
"! 	c #1F1E1E",
"~ 	c #000000",
"{ 	c #A40003",
"] 	c #9C0002",
"^ 	c #343434",
"/ 	c #1F1F1F",
"( 	c #9C0003",
"_ 	c #333232",
": 	c #770001",
"< 	c #760001",
"[ 	c #814242",
"} 	c #CB9D9D",
"| 	c #CB9D9E",
"1 	c #C88283",
"2 	c #C10004",
"3 	c #AB0003",
"4 	c #780001",
"5 	c #620000",
"6 	c #6D1717",
"7 	c #7B0001",
"8 	c #730001",
"9 	c #BE0004",
"0 	c #B80003",
"a 	c #790001",
"b 	c #752222",
"c 	c #322E2F",
"d 	c #010000",
"e 	c #B56969",
"f 	c #FFFFFF",
"g 	c #F9D4D5",
"h 	c #E90005",
"i 	c #D40004",
"j 	c #740001",
"k 	c #930002",
"l 	c #E70005",
"m 	c #DD0005",
"n 	c #980002",
"o 	c #313030",
"p 	c #AA0003",
"q 	c #B5696A",
"r 	c #970002",
"s 	c #AC0003",
"t 	c #DA0004",
"u 	c #C20004",
"v 	c #A10002",
"w 	c #690001",
"x 	c #B10003",
"y 	c #E80005",
"z 	c #E00005",
"A 	c #920002",
"B 	c #C80004",
"C 	c #D70004",
"D 	c #DF0005",
"E 	c #900002",
"F 	c #332D2D",
"G 	c #A90003",
"H 	c #F9D4D4",
"I 	c #D80004",
"J 	c #322E2E",
"K 	c #B53435",
"L 	c #EF8383",
"M 	c #EC6565",
"N 	c #DE0005",
"O 	c #D50004",
"P 	c #D30004",
"Q 	c #E30005",
"R 	c #960002",
"S 	c #A50003",
"T 	c #B50003",
"U 	c #312F2F",
"V 	c #DB0004",
"W 	c #9A0002",
"X 	c #322D2D",
"Y 	c #B30003",
"Z 	c #8F0204",
"` 	c #110000",
" .	c #4C0001",
"..	c #A80003",
"+.	c #C30004",
"@.	c #9A0003",
"#.	c #0F0000",
"$.	c #363232",
"%.	c #313131",
"&.	c #1A1919",
"*.	c #191818",
"=.	c #471515",
"-.	c #C00004",
";.	c #E50005",
">.	c #A60003",
",.	c #980C0E",
"'.	c #191919",
").	c #373636",
"!.	c #0A0000",
"~.	c #6A0001",
"{.	c #270000",
"].	c #1E1B1B",
"^.	c #250000",
"/.	c #363535",
"(.	c #353535",
"_.	c #6A2425",
":.	c #850002",
"<.	c #AF0003",
"[.	c #D20004",
"}.	c #D60004",
"|.	c #8A0002",
"1.	c #890001",
"2.	c #3E3232",
"3.	c #403F3F",
"4.	c #CF0004",
"5.	c #BA0003",
"6.	c #230000",
"7.	c #7A0001",
"8.	c #131111",
"9.	c #6D1314",
"0.	c #7E0002",
"a.	c #CE0004",
"b.	c #A30002",
"c.	c #870002",
"d.	c #840002",
"e.	c #7F0002",
"f.	c #610001",
"g.	c #6C0001",
"h.	c #590001",
"i.	c #640001",
"j.	c #5F2A2A",
"k.	c #060404",
"l.	c #201F1F",
"                                                                                                    ",
"                                                                                                    ",
"                                                                                                    ",
"                                                                                                    ",
"                                                                                                    ",
"                                                                                                    ",
"                                                                                                    ",
"                                                                                                    ",
"                                                                                                    ",
"                                                                                                    ",
"                                                                                                    ",
"                                                                                                    ",
"                                          . . + + + @                 # . + + . $                   ",
"                                          % % % % % &                 & % % % % *                   ",
"                                          = = = = = -                 ; = = = = >                   ",
"                                    % % , ' ' ' ' ' ) % %       ! % ~ { ' ' ' ' ] ~ % ^             ",
"                                    % % , ' ' ' ' ' ) % %       / % ~ { ' ' ' ' ( ~ % _             ",
"                                    : < [ } | 1 2 2 3 : 4 5     6 7 8 9 2 2 2 2 0 < a b             ",
"                              c % d 3 ' e f f g h h i ' ' j % % k ' ' l h h h h m ' ' n % %         ",
"                              o % d p ' q f f g h h i ' ' j % % k ' ' l h h h h m ' ' r % %         ",
"                              o % d s ' q f f g h h t u u v w w x u u y h h h h z ' ' A % %         ",
"                              c % d 3 ' q f f g h h h h h B ' ' C h h h h h h h D ' ' E % %         ",
"                              F % d G ' q f f H h h h h h B ' ' I h h h h h h h D ' ' k % %         ",
"                              J % d G ' K L L M h h h h h N O P Q h h h h h h h m ' ' R % %         ",
"                              o % d S ' T h h h h h h h h h h h h h h h h h h h m ' ' r % %         ",
"                              o % d S ' T h h h h h h h h h h h h h h h h h h h m ' ' n % %         ",
"                              U % d S ' T h h h h h h h h h h h h h h h h h h h V ' ' W % %         ",
"                              X % d G ' T h h h h h h h h h h h h h h h h h h h m ' ' k % %         ",
"                              U % d p S Y y y y h h h h h h h h h h h h h h y y z S S Z % %         ",
"                                    ` `  .....+.h h h h h h h h h h h h h h s ..@.#.` $.            ",
"                                    % % , ' ' u h h h h h h h h h h h h h h 3 ' ( ~ % %.            ",
"                                    &.*.=.{ S -.l l y h h h h h h h h ;.l y >.S ,.'.*.).            ",
"                                          !.!.~.....u h h h h h h h h 3 ....{.!.].                  ",
"                                          % % w ' ' u h h h h h h h h 3 ' ' ^.% *                   ",
"                                          /.(._.) :.<.O [.z h h I }.C |.) 1.2.).3.                  ",
"                                                % % 4 ' ' 4.h h 5.' ' 6.% %                         ",
"                                                % % 7.' ' 4.h h 5.' ' 6.% %                         ",
"                                                8.& 9.0.0.Y a.a.b.c.d.6.+ &.                        ",
"                                                      % % e.' ' f.% %                               ",
"                                                      % % e.' ' g.% %                               ",
"                                                          h.i.i.j.                                  ",
"                                                          k.% %                                     ",
"                                                          l.% %                                     ",
"                                                                                                    ",
"                                                                                                    ",
"                                                                                                    ",
"                                                                                                    ",
"                                                                                                    ",
"                                                                                                    ",
"                                                                                                    "};
